<?xml version="1.0" encoding="UTF-8"?>
<svg id="Layer_2" data-name="Layer 2" xmlns="http://www.w3.org/2000/svg" xmlns:xlink="http://www.w3.org/1999/xlink" viewBox="0 0 119.36 79.55">
  <defs>
    <style>
      .cls-1 {
        clip-path: url(#clippath);
      }

      .cls-2 {
        clip-rule: evenodd;
        fill: none;
      }

      .cls-3 {
        fill: url(#linear-gradient);
      }
    </style>
    <clipPath id="clippath">
      <path class="cls-2" d="m84.82,77.1l-11.79-11.25,22.4-19.76-64.48,1.95v-17.78l64,.77-21.81-17.62,11.22-11.71,35,36.32-34.54,39.08ZM15.47,39.7c1.03,2.9,7.37,5.93,7.37,5.93l-.58,1.52c-5.59-2.6-12.41-.4-14.82,5.6l-1.57-.77c2.05-6.16.45-11.38-5.86-13.25l.47-1.61c6.43,2.38,11.18-.25,13.52-6.36l1.74.59s-1.54,4.79-.27,8.36Zm22.65-30.88c-.18,3.07,4.48,8.32,4.48,8.32l-1.13,1.17c-4.13-4.57-11.28-5.2-15.83-.61l-1.14-1.32c4.29-4.88,4.84-10.31-.24-14.49l1.06-1.3c5,4.7,10.39,4.12,14.93-.6l1.37,1.23s-3.28,3.81-3.5,7.6Zm-1.46,49.75l1.67-.78c3.08,6.71,8.35,7.99,15.01,5.45l.62,1.5c-5.87,1.98-9.27,8.26-6.87,14.29l-1.67.52c-2.77-5.86-7.54-8.56-13.41-5.55l-.77-1.49c6.51-2.7,8.04-7.78,5.43-13.94Z"/>
    </clipPath>
    <linearGradient id="linear-gradient" x1="91.37" y1="97.62" x2="30.93" y2="-20.56" gradientTransform="translate(-2.78 -.71)" gradientUnits="userSpaceOnUse">
      <stop offset="0" stop-color="#ff0039"/>
      <stop offset=".94" stop-color="#000"/>
    </linearGradient>
  </defs>
  <g id="_Слой_1" data-name="Слой 1">
    <g class="cls-1">
      <rect class="cls-3" x="15.78" y="-21.95" width="87.14" height="123.42" transform="translate(19.6 99.11) rotate(-90)"/>
    </g>
  </g>
</svg>