<svg width="512" height="512" viewBox="0 0 512 512" fill="none" xmlns="http://www.w3.org/2000/svg">
<path d="M333.369 0C384.569 0 410.169 0 438.044 8.53333C468.196 19.3422 492.089 43.2356 502.898 73.3867C512 101.262 512 127.431 512 178.631V333.369C512 384.569 512 410.169 503.467 438.044C492.658 468.196 468.764 492.089 438.613 502.898C410.738 512 384.569 512 333.369 512H178.631C127.431 512 101.831 512 73.9556 503.467C43.8044 492.089 19.9111 468.764 9.10222 438.044C-6.78168e-07 410.738 0 385.138 0 333.369V178.631C0 127.431 0 101.831 8.53333 73.9556C19.9111 43.8044 43.8044 19.9111 73.9556 9.10222C101.262 -6.78168e-07 127.431 0 178.631 0H333.369Z" fill="url(#paint0_linear_18_3)"/>
<path d="M420.409 366.934C419.84 366.934 418.702 367.503 418.133 367.503H93.8666C93.2977 367.503 92.1599 367.503 91.591 366.934L192.853 265.672L214.471 287.859C237.795 311.752 274.773 311.752 298.098 287.859L319.715 265.672L420.409 366.934ZM426.667 356.126V155.308C426.667 154.17 426.667 153.032 426.098 152.463C425.529 153.601 325.404 257.139 325.404 257.139L426.667 358.401V356.126ZM85.3333 356.694V156.446C85.3333 155.308 85.3333 154.17 85.9021 153.601C86.471 154.739 186.595 258.277 186.595 258.277L85.9021 358.97C85.3333 358.401 85.3333 357.263 85.3333 356.694ZM420.978 145.637L291.84 277.619C271.929 297.53 240.071 297.53 220.729 277.619L91.591 145.637C91.0221 145.068 420.978 145.637 420.978 145.637Z" fill="white"/>
<defs>
<linearGradient id="paint0_linear_18_3" x1="255.886" y1="0.227556" x2="255.886" y2="511.886" gradientUnits="userSpaceOnUse">
<stop stop-color="#1E51EE"/>
<stop offset="1" stop-color="#19E6FF"/>
</linearGradient>
</defs>
</svg>
