<?xml version="1.0" encoding="UTF-8"?>
<svg id="Layer_2" data-name="Layer 2" xmlns="http://www.w3.org/2000/svg" viewBox="0 0 512 512">
  <defs>
    <style>
      .cls-1 {
        fill: #37aee2;
      }

      .cls-2 {
        fill: #f6fbfe;
      }

      .cls-3 {
        fill: #c8daea;
      }

      .cls-4 {
        fill: #a9c9dd;
      }
    </style>
  </defs>
  <g id="Layer_1-2" data-name="Layer 1">
    <path class="cls-1" d="m333.37,0c51.2,0,76.8,0,104.68,8.53,30.15,10.81,54.04,34.7,64.85,64.85,9.1,27.88,9.1,54.04,9.1,105.24v154.74c0,51.2,0,76.8-8.53,104.68-10.81,30.15-34.7,54.04-64.85,64.85-27.88,9.1-54.04,9.1-105.24,9.1h-154.74c-51.2,0-76.8,0-104.68-8.53-30.15-11.38-54.04-34.7-64.85-65.42C0,410.74,0,385.14,0,333.37v-154.74c0-51.2,0-76.8,8.53-104.68C19.91,43.8,43.8,19.91,73.96,9.1,101.26,0,127.43,0,178.63,0h154.74Z"/>
    <path class="cls-3" d="m199,404c-11,0-10-4-13-14l-32-105,245-144"/>
    <path class="cls-4" d="m199,404c7,0,11-4,16-8l45-43-56-34"/>
    <path class="cls-2" d="m204,319l135,99c14,9,26,4,30-14l55-258c5-22-9-32-24-25L79,245c-21,8-21,21-4,26l83,26,190-121c9-5,17-3,11,4"/>
  </g>
</svg>