<?xml version="1.0" encoding="utf-8"?>
<!-- Generator: Adobe Illustrator 27.3.1, SVG Export Plug-In . SVG Version: 6.00 Build 0)  -->
<svg version="1.1" id="Layer_1" xmlns="http://www.w3.org/2000/svg" xmlns:xlink="http://www.w3.org/1999/xlink" x="0px" y="0px"
	 viewBox="0 0 512 512" style="enable-background:new 0 0 512 512;" xml:space="preserve">
<style type="text/css">
	.st0{fill:#37AEE2;}
	.st1{fill:#C8DAEA;}
	.st2{fill:#A9C9DD;}
	.st3{fill:#F6FBFE;}
</style>
<path class="st0" d="M333.4,0c51.2,0,76.8,0,104.7,8.5c30.2,10.8,54,34.7,64.9,64.9c9.1,27.9,9.1,54,9.1,105.2v154.7
	c0,51.2,0,76.8-8.5,104.7c-10.8,30.2-34.7,54-64.9,64.9c-27.9,9.1-54,9.1-105.2,9.1H178.6c-51.2,0-76.8,0-104.7-8.5
	c-30.2-11.4-54-34.7-64.9-65.4C0,410.7,0,385.1,0,333.4V178.6C0,127.4,0,101.8,8.5,74C19.9,43.8,43.8,19.9,74,9.1
	C101.3,0,127.4,0,178.6,0H333.4z"/>
<path class="st1" d="M199,404c-11,0-10-4-13-14l-32-105l245-144"/>
<path class="st2" d="M199,404c7,0,11-4,16-8l45-43l-56-34"/>
<path class="st3" d="M204,319l135,99c14,9,26,4,30-14l55-258c5-22-9-32-24-25L79,245c-21,8-21,21-4,26l83,26l190-121c9-5,17-3,11,4"
	/>
</svg>
